<svg width="420" height="32" viewBox="0 0 210 16" fill="none" xmlns="http://www.w3.org/2000/svg">
<path d="M0.76 0.599999H9.648L12.068 3.02V13.58L9.648 16H0.76V0.599999ZM8.9 14.504L10.396 13.03V3.57L8.9 2.096H2.432V14.504H8.9ZM15.3694 0.599999H25.3134V2.096H17.0414V7.508H24.6754V9.004H17.0414V14.504H25.3134V16H15.3694V0.599999ZM26.9641 0.599999H28.7021L33.2781 13.998H33.3221L37.8981 0.599999H39.6361L34.2021 16H32.3981L26.9641 0.599999ZM41.9455 0.599999H43.6175V14.526H51.4495V16H41.9455V0.599999ZM53.872 0.599999H55.544V16H53.872V0.599999ZM59.176 0.599999H60.804L68.834 13.272H68.878V0.599999H70.462V16H68.834L60.804 3.328H60.76V16H59.176V0.599999ZM79.3498 0.599999H81.1538L86.1038 12.524H86.1478L91.0978 0.599999H92.9238V16H91.3398V3.834H91.2958L86.7858 14.46H85.4658L80.9778 3.834H80.9338V16H79.3498V0.599999ZM96.2314 13.58V3.02L98.6514 0.599999H105.251L107.583 2.932V4.34H105.911V3.482L104.503 2.096H99.3994L97.9034 3.57V13.03L99.3994 14.504H104.503L105.911 13.118V12.26H107.583V13.668L105.251 16H98.6514L96.2314 13.58ZM110.33 0.599999H119.218L121.638 3.02V13.58L119.218 16H110.33V0.599999ZM118.47 14.504L119.966 13.03V3.57L118.47 2.096H112.002V14.504H118.47ZM124.72 13.58V3.02L127.14 0.599999H134.092L136.512 3.02V13.58L134.092 16H127.14L124.72 13.58ZM133.344 14.504L134.84 13.03V3.57L133.344 2.096H127.888L126.392 3.57V13.03L127.888 14.504H133.344ZM139.807 0.599999H141.435L149.465 13.272H149.509V0.599999H151.093V16H149.465L141.435 3.328H141.391V16H139.807V0.599999ZM154.39 13.58V3.02L156.81 0.599999H163.762L166.182 3.02V13.58L163.762 16H156.81L154.39 13.58ZM163.014 14.504L164.51 13.03V3.57L163.014 2.096H157.558L156.062 3.57V13.03L157.558 14.504H163.014ZM169.477 13.58V0.599999H171.149V13.03L172.645 14.504H177.661L179.157 13.03V0.599999H180.829V13.58L178.409 16H171.897L169.477 13.58ZM184.124 13.58V3.02L186.544 0.599999H193.276L195.608 2.932V4.34H193.936V3.482L192.528 2.096H187.292L185.796 3.57V13.03L187.292 14.504H192.44L193.936 13.03V9.466H190.46V7.97H195.608V13.58L193.188 16H186.544L184.124 13.58ZM198.696 0.599999H200.368V7.574H208.332V0.599999H210.004V16H208.332V9.07H200.368V16H198.696V0.599999Z" fill="#3B3B3B"/>
</svg>
